name analog
datacolumns 19
datarows 87
range 0.6505 0.6935
endheader
time	ground_force_vx	ground_force_vy	ground_force_vz	ground_force_px	ground_force_py	ground_force_pz	l_ground_force_vx	l_ground_force_vy	l_ground_force_vz	l_ground_force_px	l_ground_force_py	l_ground_force_pz	ground_torque_x	ground_torque_y	ground_torque_z	l_ground_torque_x	l_ground_torque_y	l_ground_torque_z
0.6505	-0.0	-0.0	-0.0	-5.662434101104736	-0.2203947305679321	-768.2867431640625	-0.0	-0.0	-0.0	-0.0	-0.0	-0.0	-0.0	-0.0	-0.0	-0.0	-0.0	-0.0
0.651	-0.0	-0.0	-0.0	-5.864302158355713	0.522997260093689	-770.8050537109375	-0.0	-0.0	-0.0	-0.0	-0.0	-0.0	-0.0	-0.0	-0.0	-0.0	-0.0	-0.0
0.6515	-0.0	-0.0	-0.0	-5.965271949768066	0.2619489431381225	-772.0045166015625	-0.0	-0.0	-0.0	-0.0	-0.0	-0.0	-0.0	-0.0	-0.0	-0.0	-0.0	-0.0
0.652	-0.0	-0.0	-0.0	-5.221684455871582	-0.0237159878015518	-772.898681640625	-0.0	-0.0	-0.0	-0.0	-0.0	-0.0	-0.0	-0.0	-0.0	-0.0	-0.0	-0.0
0.6525	-0.0	-0.0	-0.0	-3.853968620300293	0.4575443267822265	-775.088623046875	-0.0	-0.0	-0.0	-0.0	-0.0	-0.0	-0.0	-0.0	-0.0	-0.0	-0.0	-0.0
0.653	-0.0	-0.0	-0.0	-3.211578369140625	0.5705686211585999	-778.219482421875	-0.0	-0.0	-0.0	-0.0	-0.0	-0.0	-0.0	-0.0	-0.0	-0.0	-0.0	-0.0
0.6535	-0.0	-0.0	-0.0	-1.552506446838379	0.3565216064453125	-779.6316528320312	-0.0	-0.0	-0.0	-0.0	-0.0	-0.0	-0.0	-0.0	-0.0	-0.0	-0.0	-0.0
0.654	-0.0	-0.0	-0.0	-0.4529242515563965	1.2118271589279177	-781.0438232421875	-0.0	-0.0	-0.0	-0.0	-0.0	-0.0	-0.0	-0.0	-0.0	-0.0	-0.0	-0.0
0.6545	-0.0	-0.0	-0.0	0.71368408203125	1.6934776306152344	-779.9166870117188	-0.0	-0.0	-0.0	-0.0	-0.0	-0.0	-0.0	-0.0	-0.0	-0.0	-0.0	-0.0
0.655	-0.0	-0.0	-0.0	2.2060964107513428	2.9338550567626958	-780.9765014648438	-0.0	-0.0	-0.0	-0.0	-0.0	-0.0	-0.0	-0.0	-0.0	-0.0	-0.0	-0.0
0.6555	-0.0	-0.0	-0.0	3.7875816822052	3.504682779312134	-782.3895263671875	-0.0	-0.0	-0.0	-0.0	-0.0	-0.0	-0.0	-0.0	-0.0	-0.0	-0.0	-0.0
0.656	-0.0	-0.0	-0.0	4.549736022949219	4.027140140533447	-779.7250366210938	-0.0	-0.0	-0.0	-0.0	-0.0	-0.0	-0.0	-0.0	-0.0	-0.0	-0.0	-0.0
0.6565	-0.0	-0.0	-0.0	5.405269622802734	5.517779350280762	-777.1889038085938	-0.0	-0.0	-0.0	-0.0	-0.0	-0.0	-0.0	-0.0	-0.0	-0.0	-0.0	-0.0
0.657	-0.0	-0.0	-0.0	5.546913146972656	6.777544021606445	-774.8284301757812	-0.0	-0.0	-0.0	-0.0	-0.0	-0.0	-0.0	-0.0	-0.0	-0.0	-0.0	-0.0
0.6575	-0.0	-0.0	-0.0	5.620262145996094	7.333193302154541	-771.60107421875	-0.0	-0.0	-0.0	-0.0	-0.0	-0.0	-0.0	-0.0	-0.0	-0.0	-0.0	-0.0
0.658	-0.0	-0.0	-0.0	5.70947265625	7.7697553634643555	-769.6278076171875	-0.0	-0.0	-0.0	-0.0	-0.0	-0.0	-0.0	-0.0	-0.0	-0.0	-0.0	-0.0
0.6585	-0.0	-0.0	-0.0	5.657257556915283	7.88043737411499	-770.6989135742188	-0.0	-0.0	-0.0	-0.0	-0.0	-0.0	-0.0	-0.0	-0.0	-0.0	-0.0	-0.0
0.659	-0.0	-0.0	-0.0	6.068950176239014	7.726998329162598	-768.2642822265625	-0.0	-0.0	-0.0	-0.0	-0.0	-0.0	-0.0	-0.0	-0.0	-0.0	-0.0	-0.0
0.6595	-0.0	-0.0	-0.0	6.056290626525879	7.754344940185547	-769.3335571289062	-0.0	-0.0	-0.0	-0.0	-0.0	-0.0	-0.0	-0.0	-0.0	-0.0	-0.0	-0.0
0.66	-0.0	-0.0	-0.0	6.041433334350586	7.306569576263428	-768.7333984375	-0.0	-0.0	-0.0	-0.0	-0.0	-0.0	-0.0	-0.0	-0.0	-0.0	-0.0	-0.0
0.6605	-0.0	-0.0	-0.0	6.819308757781982	7.041301727294922	-769.32470703125	-0.0	-0.0	-0.0	-0.0	-0.0	-0.0	-0.0	-0.0	-0.0	-0.0	-0.0	-0.0
0.661	-0.0	-0.0	-0.0	7.149352550506592	6.544020175933838	-768.5690307617188	-0.0	-0.0	-0.0	-0.0	-0.0	-0.0	-0.0	-0.0	-0.0	-0.0	-0.0	-0.0
0.6615	-0.0	-0.0	-0.0	7.6721038818359375	6.3143486976623535	-770.5338134765625	-0.0	-0.0	-0.0	-0.0	-0.0	-0.0	-0.0	-0.0	-0.0	-0.0	-0.0	-0.0
0.662	-0.0	-0.0	-0.0	8.51274585723877	6.226556777954102	-773.11083984375	-0.0	-0.0	-0.0	-0.0	-0.0	-0.0	-0.0	-0.0	-0.0	-0.0	-0.0	-0.0
0.6625	-0.0	-0.0	-0.0	9.367981910705566	6.328258514404297	-772.0513916015625	-0.0	-0.0	-0.0	-0.0	-0.0	-0.0	-0.0	-0.0	-0.0	-0.0	-0.0	-0.0
0.663	-0.0	-0.0	-0.0	9.26523780822754	6.774533271789551	-773.0582885742188	-0.0	-0.0	-0.0	-0.0	-0.0	-0.0	-0.0	-0.0	-0.0	-0.0	-0.0	-0.0
0.6635	-0.0	-0.0	-0.0	9.736635208129885	6.239128112792969	-774.4718627929688	-0.0	-0.0	-0.0	-0.0	-0.0	-0.0	-0.0	-0.0	-0.0	-0.0	-0.0	-0.0
0.664	-0.0	-0.0	-0.0	10.208304405212402	5.818905353546143	-778.055908203125	-0.0	-0.0	-0.0	-0.0	-0.0	-0.0	-0.0	-0.0	-0.0	-0.0	-0.0	-0.0
0.6645	-0.0	-0.0	-0.0	10.182761192321776	5.24594259262085	-778.86279296875	-0.0	-0.0	-0.0	-0.0	-0.0	-0.0	-0.0	-0.0	-0.0	-0.0	-0.0	-0.0
0.665	-0.0	-0.0	-0.0	10.093585014343262	4.545650482177734	-779.8704833984375	-0.0	-0.0	-0.0	-0.0	-0.0	-0.0	-0.0	-0.0	-0.0	-0.0	-0.0	-0.0
0.6655	-0.0	-0.0	-0.0	11.023603439331056	4.341745853424072	-779.2673950195312	-0.0	-0.0	-0.0	-0.0	-0.0	-0.0	-0.0	-0.0	-0.0	-0.0	-0.0	-0.0
0.666	-0.0	-0.0	-0.0	11.176175117492676	3.884040594100952	-780.1710205078125	-0.0	-0.0	-0.0	-0.0	-0.0	-0.0	-0.0	-0.0	-0.0	-0.0	-0.0	-0.0
0.6665	-0.0	-0.0	-0.0	10.19692325592041	3.985083341598511	-779.7657470703125	-0.0	-0.0	-0.0	-0.0	-0.0	-0.0	-0.0	-0.0	-0.0	-0.0	-0.0	-0.0
0.667	-0.0	-0.0	-0.0	10.06784725189209	3.884320735931397	-780.9320678710938	-0.0	-0.0	-0.0	-0.0	-0.0	-0.0	-0.0	-0.0	-0.0	-0.0	-0.0	-0.0
0.6675	-0.0	-0.0	-0.0	9.443337440490724	4.022209644317627	-781.837646484375	-0.0	-0.0	-0.0	-0.0	-0.0	-0.0	-0.0	-0.0	-0.0	-0.0	-0.0	-0.0
0.668	-0.0	-0.0	-0.0	9.469326972961426	4.367389678955078	-780.1744384765625	-0.0	-0.0	-0.0	-0.0	-0.0	-0.0	-0.0	-0.0	-0.0	-0.0	-0.0	-0.0
0.6685	-0.0	-0.0	-0.0	9.521550178527832	4.64781665802002	-782.8966064453125	-0.0	-0.0	-0.0	-0.0	-0.0	-0.0	-0.0	-0.0	-0.0	-0.0	-0.0	-0.0
0.669	-0.0	-0.0	-0.0	10.00228500366211	4.228344917297363	-780.1838989257812	-0.0	-0.0	-0.0	-0.0	-0.0	-0.0	-0.0	-0.0	-0.0	-0.0	-0.0	-0.0
0.6695	-0.0	-0.0	-0.0	10.411389350891112	5.104021072387695	-782.7921142578125	-0.0	-0.0	-0.0	-0.0	-0.0	-0.0	-0.0	-0.0	-0.0	-0.0	-0.0	-0.0
0.67	-0.0	-0.0	-0.0	10.883682250976562	5.027862071990967	-783.2489624023438	-0.0	-0.0	-0.0	-0.0	-0.0	-0.0	-0.0	-0.0	-0.0	-0.0	-0.0	-0.0
0.6705	-0.0	-0.0	-0.0	11.941017150878906	5.067253589630127	-782.646728515625	-0.0	-0.0	-0.0	-0.0	-0.0	-0.0	-0.0	-0.0	-0.0	-0.0	-0.0	-0.0
0.671	-0.0	-0.0	-0.0	12.221839904785156	5.374255180358887	-785.877685546875	-0.0	-0.0	-0.0	-0.0	-0.0	-0.0	-0.0	-0.0	-0.0	-0.0	-0.0	-0.0
0.6715	-0.0	-0.0	-0.0	12.301410675048828	5.846476078033447	-784.255126953125	-0.0	-0.0	-0.0	-0.0	-0.0	-0.0	-0.0	-0.0	-0.0	-0.0	-0.0	-0.0
0.672	-0.0	-0.0	-0.0	12.810296058654783	6.275113105773926	-783.6010131835938	-0.0	-0.0	-0.0	-0.0	-0.0	-0.0	-0.0	-0.0	-0.0	-0.0	-0.0	-0.0
0.6725	-0.0	-0.0	-0.0	12.895519256591797	6.189966201782227	-783.8482666015625	-0.0	-0.0	-0.0	-0.0	-0.0	-0.0	-0.0	-0.0	-0.0	-0.0	-0.0	-0.0
0.673	-0.0	-0.0	-0.0	12.333415031433104	7.112705230712891	-780.7750244140625	-0.0	-0.0	-0.0	-0.0	-0.0	-0.0	-0.0	-0.0	-0.0	-0.0	-0.0	-0.0
0.6735	-0.0	-0.0	-0.0	11.459161758422852	7.26851224899292	-781.1278686523438	-0.0	-0.0	-0.0	-0.0	-0.0	-0.0	-0.0	-0.0	-0.0	-0.0	-0.0	-0.0
0.674	-0.0	-0.0	-0.0	11.218523979187012	7.273282527923584	-779.76806640625	-0.0	-0.0	-0.0	-0.0	-0.0	-0.0	-0.0	-0.0	-0.0	-0.0	-0.0	-0.0
0.6745	-0.0	-0.0	-0.0	10.429275512695312	7.438215255737305	-777.6157836914062	-0.0	-0.0	-0.0	-0.0	-0.0	-0.0	-0.0	-0.0	-0.0	-0.0	-0.0	-0.0
0.675	-0.0	-0.0	-0.0	10.299745559692385	7.500453948974609	-778.6547241210938	-0.0	-0.0	-0.0	-0.0	-0.0	-0.0	-0.0	-0.0	-0.0	-0.0	-0.0	-0.0
0.6755	-0.0	-0.0	-0.0	10.080787658691406	7.095447540283203	-776.0658569335938	-0.0	-0.0	-0.0	-0.0	-0.0	-0.0	-0.0	-0.0	-0.0	-0.0	-0.0	-0.0
0.676	-0.0	-0.0	-0.0	9.935420989990234	7.521792888641357	-777.4027709960938	-0.0	-0.0	-0.0	-0.0	-0.0	-0.0	-0.0	-0.0	-0.0	-0.0	-0.0	-0.0
0.6765	-0.0	-0.0	-0.0	9.778423309326172	6.53373384475708	-777.7318725585938	-0.0	-0.0	-0.0	-0.0	-0.0	-0.0	-0.0	-0.0	-0.0	-0.0	-0.0	-0.0
0.677	-0.0	-0.0	-0.0	10.321107864379885	6.588380813598633	-776.1525268554688	-0.0	-0.0	-0.0	-0.0	-0.0	-0.0	-0.0	-0.0	-0.0	-0.0	-0.0	-0.0
0.6775	-0.0	-0.0	-0.0	10.856297492980955	7.158212661743164	-778.001220703125	-0.0	-0.0	-0.0	-0.0	-0.0	-0.0	-0.0	-0.0	-0.0	-0.0	-0.0	-0.0
0.678	-0.0	-0.0	-0.0	11.01407241821289	6.321413993835449	-777.5120239257812	-0.0	-0.0	-0.0	-0.0	-0.0	-0.0	-0.0	-0.0	-0.0	-0.0	-0.0	-0.0
0.6785	-0.0	-0.0	-0.0	11.542313575744627	6.589024066925049	-777.8919677734375	-0.0	-0.0	-0.0	-0.0	-0.0	-0.0	-0.0	-0.0	-0.0	-0.0	-0.0	-0.0
0.679	-0.0	-0.0	-0.0	11.171525955200195	6.478944778442383	-778.896484375	-0.0	-0.0	-0.0	-0.0	-0.0	-0.0	-0.0	-0.0	-0.0	-0.0	-0.0	-0.0
0.6795	-0.0	-0.0	-0.0	10.972892761230469	7.170477867126465	-776.453857421875	-0.0	-0.0	-0.0	-0.0	-0.0	-0.0	-0.0	-0.0	-0.0	-0.0	-0.0	-0.0
0.68	-0.0	-0.0	-0.0	10.562463760375977	6.952171325683594	-779.6328735351562	-0.0	-0.0	-0.0	-0.0	-0.0	-0.0	-0.0	-0.0	-0.0	-0.0	-0.0	-0.0
0.6805	-0.0	-0.0	-0.0	10.57433032989502	7.322587490081787	-776.995849609375	-0.0	-0.0	-0.0	-0.0	-0.0	-0.0	-0.0	-0.0	-0.0	-0.0	-0.0	-0.0
0.681	-0.0	-0.0	-0.0	10.306595802307127	7.520369529724121	-777.37109375	-0.0	-0.0	-0.0	-0.0	-0.0	-0.0	-0.0	-0.0	-0.0	-0.0	-0.0	-0.0
0.6815	-0.0	-0.0	-0.0	9.813156127929688	7.82951021194458	-774.8555908203125	-0.0	-0.0	-0.0	-0.0	-0.0	-0.0	-0.0	-0.0	-0.0	-0.0	-0.0	-0.0
0.682	-0.0	-0.0	-0.0	9.367103576660156	8.397380828857422	-774.634521484375	-0.0	-0.0	-0.0	-0.0	-0.0	-0.0	-0.0	-0.0	-0.0	-0.0	-0.0	-0.0
0.6825	-0.0	-0.0	-0.0	8.35276985168457	7.763463497161865	-773.8728637695312	-0.0	-0.0	-0.0	-0.0	-0.0	-0.0	-0.0	-0.0	-0.0	-0.0	-0.0	-0.0
0.683	-0.0	-0.0	-0.0	8.136945724487305	8.439245223999023	-771.5866088867188	-0.0	-0.0	-0.0	-0.0	-0.0	-0.0	-0.0	-0.0	-0.0	-0.0	-0.0	-0.0
0.6835	-0.0	-0.0	-0.0	7.521924018859863	8.256428718566895	-769.69091796875	-0.0	-0.0	-0.0	-0.0	-0.0	-0.0	-0.0	-0.0	-0.0	-0.0	-0.0	-0.0
0.684	-0.0	-0.0	-0.0	6.779998779296875	8.959737777709961	-769.3549194335938	-0.0	-0.0	-0.0	-0.0	-0.0	-0.0	-0.0	-0.0	-0.0	-0.0	-0.0	-0.0
0.6845	-0.0	-0.0	-0.0	6.2122907638549805	8.838088035583496	-770.3416137695312	-0.0	-0.0	-0.0	-0.0	-0.0	-0.0	-0.0	-0.0	-0.0	-0.0	-0.0	-0.0
0.685	-0.0	-0.0	-0.0	6.127069473266602	9.194646835327148	-767.6442260742188	-0.0	-0.0	-0.0	-0.0	-0.0	-0.0	-0.0	-0.0	-0.0	-0.0	-0.0	-0.0
0.6855	-0.0	-0.0	-0.0	5.32410192489624	9.53695297241211	-767.2197875976562	-0.0	-0.0	-0.0	-0.0	-0.0	-0.0	-0.0	-0.0	-0.0	-0.0	-0.0	-0.0
0.686	-0.0	-0.0	-0.0	5.605963230133057	10.028878211975098	-769.5925903320312	-0.0	-0.0	-0.0	-0.0	-0.0	-0.0	-0.0	-0.0	-0.0	-0.0	-0.0	-0.0
0.6865	-0.0	-0.0	-0.0	4.788697242736816	10.328001022338867	-769.4782104492188	-0.0	-0.0	-0.0	-0.0	-0.0	-0.0	-0.0	-0.0	-0.0	-0.0	-0.0	-0.0
0.687	-0.0	-0.0	-0.0	3.925262451171875	10.802115440368652	-768.2232666015625	-0.0	-0.0	-0.0	-0.0	-0.0	-0.0	-0.0	-0.0	-0.0	-0.0	-0.0	-0.0
0.6875	-0.0	-0.0	-0.0	3.626044511795044	11.11251449584961	-770.3994750976562	-0.0	-0.0	-0.0	-0.0	-0.0	-0.0	-0.0	-0.0	-0.0	-0.0	-0.0	-0.0
0.6880000000000001	-0.0	-0.0	-0.0	3.4477691650390625	11.187142372131348	-772.2330322265625	-0.0	-0.0	-0.0	-0.0	-0.0	-0.0	-0.0	-0.0	-0.0	-0.0	-0.0	-0.0
0.6885	-0.0	-0.0	-0.0	2.7800047397613525	11.574821472167969	-770.92529296875	-0.0	-0.0	-0.0	-0.0	-0.0	-0.0	-0.0	-0.0	-0.0	-0.0	-0.0	-0.0
0.6890000000000001	-0.0	-0.0	-0.0	2.825709819793701	11.586952209472656	-772.9384765625	-0.0	-0.0	-0.0	-0.0	-0.0	-0.0	-0.0	-0.0	-0.0	-0.0	-0.0	-0.0
0.6895	-0.0	-0.0	-0.0	2.3194732666015625	11.554058074951172	-773.6444702148438	-0.0	-0.0	-0.0	-0.0	-0.0	-0.0	-0.0	-0.0	-0.0	-0.0	-0.0	-0.0
0.6900000000000001	-0.0	-0.0	-0.0	2.291994094848633	12.479948043823242	-773.1753540039062	-0.0	-0.0	-0.0	-0.0	-0.0	-0.0	-0.0	-0.0	-0.0	-0.0	-0.0	-0.0
0.6905	-0.0	-0.0	-0.0	1.9611424207687376	12.552779197692873	-773.7014770507812	-0.0	-0.0	-0.0	-0.0	-0.0	-0.0	-0.0	-0.0	-0.0	-0.0	-0.0	-0.0
0.6910000000000001	-0.0	-0.0	-0.0	1.9626312255859373	12.403768539428713	-771.9933471679688	-0.0	-0.0	-0.0	-0.0	-0.0	-0.0	-0.0	-0.0	-0.0	-0.0	-0.0	-0.0
0.6915	-0.0	-0.0	-0.0	1.6498674154281616	12.92601490020752	-773.1648559570312	-0.0	-0.0	-0.0	-0.0	-0.0	-0.0	-0.0	-0.0	-0.0	-0.0	-0.0	-0.0
0.6920000000000001	-0.0	-0.0	-0.0	1.4871203899383545	13.08745288848877	-770.34375	-0.0	-0.0	-0.0	-0.0	-0.0	-0.0	-0.0	-0.0	-0.0	-0.0	-0.0	-0.0
0.6925	-0.0	-0.0	-0.0	1.4119755029678345	12.804648399353027	-769.7544555664062	-0.0	-0.0	-0.0	-0.0	-0.0	-0.0	-0.0	-0.0	-0.0	-0.0	-0.0	-0.0
0.6930000000000001	-0.0	-0.0	-0.0	0.8472946882247925	13.206496238708496	-768.106201171875	-0.0	-0.0	-0.0	-0.0	-0.0	-0.0	-0.0	-0.0	-0.0	-0.0	-0.0	-0.0
0.6935	-0.0	-0.0	-0.0	0.8772686123847961	13.755727767944336	-768.579833984375	-0.0	-0.0	-0.0	-0.0	-0.0	-0.0	-0.0	-0.0	-0.0	-0.0	-0.0	-0.0
